<svg width="61" height="61" viewBox="0 0 61 61" fill="none" xmlns="http://www.w3.org/2000/svg">
<path d="M22.2373 42.1875L13.6441 47V42.1875H11V14H50V42.1875H22.2373Z" stroke="#FFDB58" stroke-width="3"/>
<circle cx="30.5" cy="44.5" r="6.5" fill="#232323" stroke="#FFDB58" stroke-width="2"/>
<path d="M27 44L29 42V48" stroke="#FFDB58" stroke-width="1.5"/>
<path d="M20 24L20.8981 26.7639H23.8042L21.4531 28.4721L22.3511 31.2361L20 29.5279L17.6489 31.2361L18.5469 28.4721L16.1958 26.7639H19.1019L20 24Z" fill="#FFDB58"/>
<path d="M31 24L31.8981 26.7639H34.8042L32.4531 28.4721L33.3511 31.2361L31 29.5279L28.6489 31.2361L29.5469 28.4721L27.1958 26.7639H30.1019L31 24Z" fill="#FFDB58"/>
<path d="M42 24L42.8981 26.7639H45.8042L43.4531 28.4721L44.3511 31.2361L42 29.5279L39.6489 31.2361L40.5469 28.4721L38.1958 26.7639H41.1019L42 24Z" fill="#FFDB58"/>
<path d="M31 40.8999V47.3999H33V40.8999H31Z" stroke="#FFDB58" stroke-width="1.2"/>
</svg>
