<svg width="61" height="61" viewBox="0 0 61 61" fill="none" xmlns="http://www.w3.org/2000/svg">
<path d="M22.2373 42.1875L13.6441 47V42.1875H11V14H50V42.1875H22.2373Z" stroke="#C0C0C0" stroke-width="3"/>
<circle cx="30.5" cy="44.5" r="6.5" fill="#232323" stroke="#C0C0C0" stroke-width="2"/>
<path d="M23 24L23.8981 26.7639H26.8042L24.4531 28.4721L25.3511 31.2361L23 29.5279L20.6489 31.2361L21.5469 28.4721L19.1958 26.7639H22.1019L23 24Z" fill="#C0C0C0"/>
<path d="M39 24L39.8981 26.7639H42.8042L40.4531 28.4721L41.3511 31.2361L39 29.5279L36.6489 31.2361L37.5469 28.4721L35.1958 26.7639H38.1019L39 24Z" fill="#C0C0C0"/>
<path d="M32.5 41.5H29.5V44L31.5 44.5V47H28.5" stroke="#C0C0C0" stroke-width="2"/>
</svg>
